<svg id="visual" viewBox="0 0 900 600" xmlns="http://www.w3.org/2000/svg"
    xmlns:xlink="http://www.w3.org/1999/xlink" version="1.1" style="enable-background:new 0 0 1920 204.8;" xml:space="preserve">
    <rect x="0" y="0" width="900" height="600" fill="transparent"></rect>
    <path
        d="M0 448L21.5 453.2C43 458.3 86 468.7 128.8 473.8C171.7 479 214.3 479 257.2 484C300 489 343 499 385.8 484.8C428.7 470.7 471.3 432.3 514.2 422.8C557 413.3 600 432.7 642.8 430.5C685.7 428.3 728.3 404.7 771.2 392.7C814 380.7 857 380.3 878.5 380.2L900 380L900 601L878.5 601C857 601 814 601 771.2 601C728.3 601 685.7 601 642.8 601C600 601 557 601 514.2 601C471.3 601 428.7 601 385.8 601C343 601 300 601 257.2 601C214.3 601 171.7 601 128.8 601C86 601 43 601 21.5 601L0 601Z"
        fill="#FFFFFF" stroke-linecap="round" stroke-linejoin="miter"></path>
</svg>